<mxfile host="app.diagrams.net" modified="2024-02-12T11:32:18.621Z" agent="Mozilla/5.0 (Windows NT 10.0; Win64; x64; rv:122.0) Gecko/20100101 Firefox/122.0" version="23.1.2" etag="czLyI5iOKwP6hwCA1j_V" type="github">
  <diagram name="Page-1" id="ZSaaWZKtaVVoGhzalc0y">
    <mxGraphModel>
      <root>
        <mxCell id="0" />
        <mxCell id="1" parent="0" />
      </root>
    </mxGraphModel>
  </diagram>
</mxfile>
